<svg width="40" height="40" viewBox="0 0 40 40" fill="none" xmlns="http://www.w3.org/2000/svg"><link xmlns="" type="text/css" rel="stylesheet" id="dark-mode-custom-link"/><link xmlns="" type="text/css" rel="stylesheet" id="dark-mode-general-link"/><style xmlns="" lang="en" type="text/css" id="dark-mode-custom-style"/><style xmlns="" lang="en" type="text/css" id="dark-mode-native-style"/>
<path fill-rule="evenodd" clip-rule="evenodd" d="M20 0C31.0457 0 40 8.95431 40 20C40 31.0457 31.0457 40 20 40C8.95431 40 0 31.0457 0 20C0 8.95431 8.95431 0 20 0ZM24.0097 15.4727C22.9734 14.4818 21.6552 13.9773 20.187 13.9773C17.5824 13.9773 15.3783 15.7363 14.5919 18.0999C14.3919 18.6999 14.2783 19.3409 14.2783 20C14.2783 20.659 14.3915 21.2999 14.5915 21.8999C15.3779 24.2636 17.5824 26.0227 20.187 26.0227C21.5324 26.0227 22.6783 25.6682 23.5737 25.0682C24.6328 24.3591 25.3374 23.3 25.5692 22.05H20.1874V18.1818H29.6056C29.7238 18.8364 29.7874 19.5182 29.7874 20.2273C29.7874 23.2728 28.6965 25.8364 26.8056 27.5773C25.151 29.1046 22.887 30 20.187 30C16.2779 30 12.8961 27.7591 11.2506 24.4909C10.5733 23.1409 10.1874 21.6136 10.1874 20C10.1874 18.3863 10.5737 16.859 11.251 15.509C12.8965 12.2408 16.2779 10 20.187 10C22.8825 10 25.1461 10.9909 26.8779 12.6046L24.0097 15.4727Z" fill="black"/>
</svg>