<svg width="179" height="58" viewBox="0 0 179 58" fill="none" xmlns="http://www.w3.org/2000/svg">
<path d="M17.4134 29.544C18.5334 29.544 19.4854 29.376 20.2694 29.04C21.0534 28.688 21.6854 28.224 22.1654 27.648C22.6614 27.072 23.0134 26.4 23.2214 25.632C23.4454 24.864 23.5574 24.056 23.5574 23.208C23.5574 22.552 23.4614 21.96 23.2694 21.432C23.0774 20.888 22.7734 20.432 22.3574 20.064C21.9574 19.68 21.4454 19.384 20.8214 19.176C20.2134 18.968 19.4934 18.864 18.6614 18.864H15.8774L14.5574 29.544H17.4134ZM19.3814 13.032C21.5254 13.032 23.3494 13.264 24.8534 13.728C26.3734 14.176 27.6134 14.8 28.5734 15.6C29.5334 16.4 30.2294 17.352 30.6614 18.456C31.1094 19.544 31.3334 20.728 31.3334 22.008C31.3334 23.288 31.1574 24.512 30.8054 25.68C30.4694 26.832 29.9734 27.896 29.3174 28.872C28.6614 29.832 27.8614 30.688 26.9174 31.44C25.9734 32.176 24.8934 32.784 23.6774 33.264C24.1574 33.536 24.5974 33.872 24.9974 34.272C25.3974 34.656 25.7334 35.128 26.0054 35.688L31.0934 48H24.0374C23.3814 48 22.8294 47.872 22.3814 47.616C21.9494 47.344 21.6374 46.976 21.4454 46.512L17.6534 36.168C17.4614 35.736 17.2214 35.424 16.9334 35.232C16.6454 35.04 16.2134 34.944 15.6374 34.944H13.8854L12.2774 48H4.50144L8.77344 13.032H19.3814ZM46.5899 27.84C45.3739 27.84 44.2619 28.112 43.2539 28.656C42.2619 29.2 41.4059 29.944 40.6859 30.888C39.9659 31.816 39.4059 32.904 39.0059 34.152C38.6219 35.384 38.4299 36.704 38.4299 38.112C38.4299 38.912 38.4939 39.592 38.6219 40.152C38.7499 40.712 38.9179 41.168 39.1259 41.52C39.3499 41.856 39.6059 42.104 39.8939 42.264C40.1979 42.424 40.5259 42.504 40.8779 42.504C41.4219 42.504 41.9499 42.304 42.4619 41.904C42.9739 41.488 43.4539 40.928 43.9019 40.224C44.3659 39.52 44.7899 38.696 45.1739 37.752C45.5579 36.808 45.8859 35.8 46.1579 34.728L47.0459 27.84H46.5899ZM45.4379 43.848C44.4299 45.256 43.2939 46.368 42.0299 47.184C40.7819 47.984 39.4059 48.384 37.9019 48.384C37.0059 48.384 36.1419 48.208 35.3099 47.856C34.4779 47.488 33.7419 46.944 33.1019 46.224C32.4619 45.488 31.9499 44.56 31.5659 43.44C31.1819 42.304 30.9899 40.968 30.9899 39.432C30.9899 37.176 31.3979 35.04 32.2139 33.024C33.0459 30.992 34.1979 29.216 35.6699 27.696C37.1579 26.176 38.9179 24.968 40.9499 24.072C42.9819 23.176 45.2139 22.728 47.6459 22.728C48.8299 22.728 50.0299 22.808 51.2459 22.968C52.4619 23.128 53.6619 23.416 54.8459 23.832L51.8219 48H47.8379C47.3739 48 46.9819 47.944 46.6619 47.832C46.3579 47.704 46.1099 47.536 45.9179 47.328C45.7419 47.12 45.6139 46.872 45.5339 46.584C45.4699 46.296 45.4379 45.984 45.4379 45.648V43.848ZM72.6191 28.344C72.3951 28.632 72.1871 28.84 71.9951 28.968C71.8031 29.096 71.5471 29.16 71.2271 29.16C70.9071 29.16 70.5871 29.088 70.2671 28.944C69.9631 28.8 69.6271 28.64 69.2591 28.464C68.9071 28.272 68.4991 28.104 68.0351 27.96C67.5871 27.816 67.0671 27.744 66.4751 27.744C65.3711 27.744 64.5791 27.96 64.0991 28.392C63.6351 28.808 63.4031 29.352 63.4031 30.024C63.4031 30.456 63.5311 30.824 63.7871 31.128C64.0591 31.432 64.4111 31.704 64.8431 31.944C65.2751 32.184 65.7631 32.408 66.3071 32.616C66.8671 32.808 67.4351 33.032 68.0111 33.288C68.5871 33.528 69.1471 33.808 69.6911 34.128C70.2511 34.448 70.7471 34.84 71.1791 35.304C71.6111 35.768 71.9551 36.32 72.2111 36.96C72.4831 37.6 72.6191 38.36 72.6191 39.24C72.6191 40.488 72.3711 41.672 71.8751 42.792C71.3791 43.896 70.6671 44.864 69.7391 45.696C68.8111 46.512 67.6831 47.168 66.3551 47.664C65.0431 48.144 63.5631 48.384 61.9151 48.384C61.1311 48.384 60.3551 48.304 59.5871 48.144C58.8191 47.984 58.0911 47.768 57.4031 47.496C56.7311 47.224 56.1151 46.904 55.5551 46.536C54.9951 46.152 54.5391 45.744 54.1871 45.312L56.0111 42.576C56.2351 42.256 56.4911 42.008 56.7791 41.832C57.0831 41.64 57.4511 41.544 57.8831 41.544C58.2831 41.544 58.6271 41.64 58.9151 41.832C59.2031 42.024 59.5151 42.232 59.8511 42.456C60.1871 42.68 60.5871 42.888 61.0511 43.08C61.5151 43.272 62.1231 43.368 62.8751 43.368C63.9311 43.368 64.7151 43.136 65.2271 42.672C65.7391 42.192 65.9951 41.632 65.9951 40.992C65.9951 40.496 65.8591 40.088 65.5871 39.768C65.3311 39.448 64.9871 39.176 64.5551 38.952C64.1231 38.712 63.6351 38.504 63.0911 38.328C62.5471 38.136 61.9871 37.928 61.4111 37.704C60.8351 37.48 60.2751 37.224 59.7311 36.936C59.1871 36.632 58.6991 36.256 58.2671 35.808C57.8351 35.36 57.4831 34.808 57.2111 34.152C56.9551 33.496 56.8271 32.704 56.8271 31.776C56.8271 30.624 57.0351 29.504 57.4511 28.416C57.8831 27.328 58.5151 26.368 59.3471 25.536C60.1951 24.688 61.2431 24.008 62.4911 23.496C63.7391 22.984 65.1951 22.728 66.8591 22.728C68.5231 22.728 70.0031 23.016 71.2991 23.592C72.6111 24.168 73.6911 24.872 74.5391 25.704L72.6191 28.344ZM76.4906 42.624C76.4906 42.512 76.4906 42.376 76.4906 42.216C76.4906 42.056 76.4986 41.832 76.5146 41.544C76.5466 41.24 76.5866 40.848 76.6346 40.368C76.6986 39.872 76.7786 39.224 76.8746 38.424L78.1466 28.248H76.1546C75.8186 28.248 75.5386 28.128 75.3146 27.888C75.0906 27.632 75.0186 27.264 75.0986 26.784L75.4346 23.88L79.2026 23.112L81.2906 17.04C81.5626 16.272 82.1066 15.888 82.9226 15.888H86.9546L86.0426 23.16H91.6106L90.9866 28.248H85.4186L84.2186 38.016C84.1386 38.672 84.0746 39.192 84.0266 39.576C83.9786 39.944 83.9386 40.232 83.9066 40.44C83.8906 40.632 83.8826 40.768 83.8826 40.848C83.8826 40.912 83.8826 40.952 83.8826 40.968C83.8826 41.432 83.9866 41.824 84.1946 42.144C84.4186 42.448 84.7626 42.6 85.2266 42.6C85.4826 42.6 85.6906 42.576 85.8506 42.528C86.0266 42.464 86.1786 42.4 86.3066 42.336C86.4346 42.256 86.5546 42.192 86.6666 42.144C86.7786 42.08 86.9066 42.048 87.0506 42.048C87.2746 42.048 87.4346 42.104 87.5306 42.216C87.6426 42.312 87.7546 42.472 87.8666 42.696L89.4986 46.224C88.5066 46.944 87.4426 47.488 86.3066 47.856C85.1706 48.208 84.0266 48.384 82.8746 48.384C81.9146 48.384 81.0506 48.256 80.2826 48C79.5146 47.728 78.8506 47.344 78.2906 46.848C77.7466 46.336 77.3146 45.728 76.9946 45.024C76.6906 44.32 76.5226 43.52 76.4906 42.624ZM116.113 23.112L113.089 48H109.297C107.537 48 106.657 47.184 106.657 45.552V43.968C105.457 45.472 104.169 46.584 102.793 47.304C101.417 48.024 99.9854 48.384 98.4974 48.384C97.4574 48.384 96.5134 48.176 95.6654 47.76C94.8174 47.344 94.1054 46.736 93.5294 45.936C92.9694 45.12 92.5694 44.128 92.3294 42.96C92.0894 41.776 92.0654 40.424 92.2574 38.904L94.1294 23.112H101.569L99.6974 38.904C99.6174 39.576 99.5854 40.144 99.6014 40.608C99.6334 41.072 99.7214 41.448 99.8654 41.736C100.009 42.008 100.201 42.208 100.441 42.336C100.697 42.448 101.009 42.504 101.377 42.504C101.889 42.504 102.417 42.36 102.961 42.072C103.505 41.768 104.033 41.352 104.545 40.824C105.057 40.28 105.529 39.624 105.961 38.856C106.409 38.088 106.777 37.232 107.065 36.288L108.673 23.112H116.113Z" fill="#282828"/>
<path d="M126.135 28.248C126.743 27.176 127.391 26.256 128.079 25.488C128.767 24.72 129.471 24.128 130.191 23.712C130.927 23.28 131.671 23.04 132.423 22.992C133.191 22.928 133.959 23.072 134.727 23.424L133.383 30.312C132.471 29.928 131.615 29.752 130.815 29.784C130.031 29.816 129.303 30.088 128.631 30.6C127.975 31.112 127.375 31.88 126.831 32.904C126.303 33.928 125.847 35.24 125.463 36.84L124.119 48H116.823L119.847 23.112H123.687C124.455 23.112 125.055 23.296 125.487 23.664C125.919 24.016 126.135 24.6 126.135 25.416V28.248ZM146.22 27.792C144.988 27.792 143.908 28.288 142.98 29.28C142.052 30.256 141.364 31.6 140.916 33.312C142.452 33.072 143.7 32.816 144.66 32.544C145.62 32.272 146.364 31.984 146.892 31.68C147.42 31.36 147.772 31.024 147.948 30.672C148.14 30.32 148.236 29.936 148.236 29.52C148.236 29.104 148.076 28.712 147.756 28.344C147.436 27.976 146.924 27.792 146.22 27.792ZM154.428 43.392C153.548 44.256 152.684 45.008 151.836 45.648C151.004 46.272 150.14 46.792 149.244 47.208C148.364 47.608 147.42 47.904 146.412 48.096C145.42 48.288 144.332 48.384 143.148 48.384C141.676 48.384 140.324 48.136 139.092 47.64C137.86 47.128 136.796 46.416 135.9 45.504C135.02 44.576 134.332 43.464 133.836 42.168C133.356 40.872 133.116 39.432 133.116 37.848C133.116 36.52 133.26 35.224 133.548 33.96C133.852 32.696 134.276 31.512 134.82 30.408C135.38 29.288 136.06 28.264 136.86 27.336C137.66 26.392 138.556 25.584 139.548 24.912C140.556 24.24 141.652 23.72 142.836 23.352C144.036 22.968 145.308 22.776 146.652 22.776C147.98 22.776 149.156 22.968 150.18 23.352C151.22 23.736 152.092 24.24 152.796 24.864C153.5 25.472 154.036 26.16 154.404 26.928C154.772 27.696 154.956 28.464 154.956 29.232C154.956 30.368 154.732 31.408 154.284 32.352C153.836 33.28 153.052 34.112 151.932 34.848C150.828 35.584 149.332 36.208 147.444 36.72C145.572 37.232 143.212 37.632 140.364 37.92C140.396 39.616 140.764 40.856 141.468 41.64C142.188 42.424 143.244 42.816 144.636 42.816C145.292 42.816 145.86 42.76 146.34 42.648C146.82 42.536 147.236 42.392 147.588 42.216C147.956 42.04 148.284 41.856 148.572 41.664C148.86 41.472 149.132 41.288 149.388 41.112C149.66 40.936 149.94 40.792 150.228 40.68C150.516 40.568 150.844 40.512 151.212 40.512C151.452 40.512 151.684 40.576 151.908 40.704C152.132 40.816 152.332 40.968 152.508 41.16L154.428 43.392ZM172.819 28.344C172.595 28.632 172.387 28.84 172.195 28.968C172.003 29.096 171.747 29.16 171.427 29.16C171.107 29.16 170.787 29.088 170.467 28.944C170.163 28.8 169.827 28.64 169.459 28.464C169.107 28.272 168.699 28.104 168.235 27.96C167.787 27.816 167.267 27.744 166.675 27.744C165.571 27.744 164.779 27.96 164.299 28.392C163.835 28.808 163.603 29.352 163.603 30.024C163.603 30.456 163.731 30.824 163.987 31.128C164.259 31.432 164.611 31.704 165.043 31.944C165.475 32.184 165.963 32.408 166.507 32.616C167.067 32.808 167.635 33.032 168.211 33.288C168.787 33.528 169.347 33.808 169.891 34.128C170.451 34.448 170.947 34.84 171.379 35.304C171.811 35.768 172.155 36.32 172.411 36.96C172.683 37.6 172.819 38.36 172.819 39.24C172.819 40.488 172.571 41.672 172.075 42.792C171.579 43.896 170.867 44.864 169.939 45.696C169.011 46.512 167.883 47.168 166.555 47.664C165.243 48.144 163.763 48.384 162.115 48.384C161.331 48.384 160.555 48.304 159.787 48.144C159.019 47.984 158.291 47.768 157.603 47.496C156.931 47.224 156.315 46.904 155.755 46.536C155.195 46.152 154.739 45.744 154.387 45.312L156.211 42.576C156.435 42.256 156.691 42.008 156.979 41.832C157.283 41.64 157.651 41.544 158.083 41.544C158.483 41.544 158.827 41.64 159.115 41.832C159.403 42.024 159.715 42.232 160.051 42.456C160.387 42.68 160.787 42.888 161.251 43.08C161.715 43.272 162.323 43.368 163.075 43.368C164.131 43.368 164.915 43.136 165.427 42.672C165.939 42.192 166.195 41.632 166.195 40.992C166.195 40.496 166.059 40.088 165.787 39.768C165.531 39.448 165.187 39.176 164.755 38.952C164.323 38.712 163.835 38.504 163.291 38.328C162.747 38.136 162.187 37.928 161.611 37.704C161.035 37.48 160.475 37.224 159.931 36.936C159.387 36.632 158.899 36.256 158.467 35.808C158.035 35.36 157.683 34.808 157.411 34.152C157.155 33.496 157.027 32.704 157.027 31.776C157.027 30.624 157.235 29.504 157.651 28.416C158.083 27.328 158.715 26.368 159.547 25.536C160.395 24.688 161.443 24.008 162.691 23.496C163.939 22.984 165.395 22.728 167.059 22.728C168.723 22.728 170.203 23.016 171.499 23.592C172.811 24.168 173.891 24.872 174.739 25.704L172.819 28.344Z" fill="#FC5676"/>
</svg>
